<svg width="25" height="23" viewBox="0 0 25 23" fill="none" xmlns="http://www.w3.org/2000/svg">
<path d="M23.9682 5.12217C23.5942 4.2562 23.055 3.47147 22.3806 2.81191C21.7058 2.15037 20.9101 1.62466 20.0369 1.26336C19.1314 0.88722 18.1602 0.694693 17.1797 0.69695C15.8042 0.69695 14.4621 1.07362 13.2958 1.78512C13.0168 1.95532 12.7517 2.14226 12.5006 2.34595C12.2495 2.14226 11.9844 1.95532 11.7054 1.78512C10.5391 1.07362 9.19702 0.69695 7.82146 0.69695C6.83095 0.69695 5.87113 0.886682 4.96432 1.26336C4.0882 1.62608 3.29858 2.14784 2.62057 2.81191C1.94534 3.47073 1.40594 4.25565 1.03296 5.12217C0.645124 6.0234 0.447021 6.98043 0.447021 7.96537C0.447021 8.89449 0.636754 9.86269 1.01343 10.8476C1.32872 11.6707 1.78073 12.5245 2.35829 13.3867C3.27347 14.7511 4.53184 16.1741 6.09434 17.6166C8.68363 20.0078 11.2478 21.6596 11.3566 21.7265L12.0179 22.1506C12.3109 22.3376 12.6875 22.3376 12.9805 22.1506L13.6418 21.7265C13.7506 21.6568 16.312 20.0078 18.9041 17.6166C20.4666 16.1741 21.7249 14.7511 22.6401 13.3867C23.2177 12.5245 23.6725 11.6707 23.985 10.8476C24.3616 9.86269 24.5514 8.89449 24.5514 7.96537C24.5542 6.98043 24.3561 6.0234 23.9682 5.12217V5.12217ZM12.5006 19.9436C12.5006 19.9436 2.56756 13.5792 2.56756 7.96537C2.56756 5.12217 4.91968 2.81749 7.82146 2.81749C9.86108 2.81749 11.6301 3.95588 12.5006 5.61882C13.3711 3.95588 15.1401 2.81749 17.1797 2.81749C20.0815 2.81749 22.4336 5.12217 22.4336 7.96537C22.4336 13.5792 12.5006 19.9436 12.5006 19.9436Z" fill="#393D45"/>
</svg>
