<svg width="22" height="24" viewBox="0 0 22 24" fill="none" xmlns="http://www.w3.org/2000/svg">
<path d="M15.6563 12.2021C15.6861 12.1781 15.7103 12.1475 15.7269 12.1124C15.7435 12.0774 15.7522 12.039 15.7522 12C15.7522 11.961 15.7435 11.9226 15.7269 11.8876C15.7103 11.8526 15.6861 11.8219 15.6563 11.7979L11.2281 8.20428C11.0656 8.07273 10.825 8.19144 10.825 8.40642L10.825 10.784L0.25 10.784C0.1125 10.784 1.56222e-07 10.8995 1.54539e-07 11.0406L1.31582e-07 12.9658C1.29898e-07 13.107 0.1125 13.2225 0.25 13.2225L10.8219 13.2225L10.8219 15.5936C10.8219 15.8086 11.0625 15.9273 11.225 15.7957L15.6563 12.2021ZM14.5625 0.256686L14.5625 2.18182C14.5625 2.323 14.675 2.4385 14.8125 2.4385L19.625 2.4385L19.625 21.5615L14.8125 21.5615C14.675 21.5615 14.5625 21.677 14.5625 21.8182L14.5625 23.7433C14.5625 23.8845 14.675 24 14.8125 24L21 24C21.5531 24 22 23.5412 22 22.9733L22 1.02674C22 0.458825 21.5531 1.18089e-06 21 1.17429e-06L14.8125 1.10051e-06C14.675 1.09887e-06 14.5625 0.115509 14.5625 0.256686Z" fill="#1E2023"/>
</svg>
